<?xml version="1.0" encoding="UTF-8"?><svg xmlns="http://www.w3.org/2000/svg" xmlns:xlink="http://www.w3.org/1999/xlink" viewBox="0 0 50 50" version="1.1"><path d="M5 2C3.348 2 2 3.348 2 5v30c0 1.652 1.348 3 3 3h40c1.652 0 3-1.348 3-3V5c0-1.652-1.348-3-3-3zm2 5h36v26H7zm12.281 4.281l-8 8-.687.719.687.719 8 8 1.438-1.438L13.437 20l7.282-7.281zm11.438 0L29.28 12.72 36.563 20l-7.282 7.281 1.438 1.438 8-8 .687-.719-.687-.719zM20 39v4h10v-4zm-10 1c-.297 0-.59.117-.781.344l-5 6c-.25.3-.29.742-.125 1.093A.99.99 0 0 0 5 48h40a.99.99 0 0 0 .906-.563 1.055 1.055 0 0 0-.125-1.093l-5-6A1.019 1.019 0 0 0 40 40h-8v5H18v-5z" id="surface1"/><metadata><rdf:RDF xmlns:rdf="http://www.w3.org/1999/02/22-rdf-syntax-ns#" xmlns:rdfs="http://www.w3.org/2000/01/rdf-schema#" xmlns:dc="http://purl.org/dc/elements/1.1/"><rdf:Description about="https://iconscout.com/legal#licenses" dc:title="google,code,filled" dc:description="google,code,filled" dc:publisher="Iconscout" dc:date="2017-12-09" dc:format="image/svg+xml" dc:language="en"><dc:creator><rdf:Bag><rdf:li>Icons8</rdf:li></rdf:Bag></dc:creator></rdf:Description></rdf:RDF></metadata></svg>